<svg xmlns="http://www.w3.org/2000/svg" viewBox="0 0 14 14"><defs><style>.iconBackground{fill:#fff;opacity:.9}.iconMain{fill:#898989;}</style></defs><path class="iconBackground" d="M11.15869,6.37329l.94776-.61426c-.32465-.7846-.251-.60571-.57569-1.39062l-1.105.23608c-.39209-.39233-.51562-.51611-.9082-.9082l.23633-1.10474c-.78516-.32495-.606-.25091-1.39063-.57593L7.749,2.96338H6.46436L5.8501,2.01562c-.78461.325-.606.25092-1.39063.57593l.23584,1.10474c-.39209.39209-.51562.51587-.9082.90814l-1.10449-.236c-.3252.78485-.251.60589-.57617,1.39056l.94824.61432V7.65771L2.10645,8.272c.32519.78491.251.606.57617,1.39063l1.10449-.23578c.39258.39209.51611.51587.9082.9082l-.23584,1.10443c.78461.3252.606.251,1.39063.57617l.61426-.948H7.749l.61426.948c.78461-.32519.60547-.251,1.39063-.57617L9.51758,10.335c.39258-.39233.51611-.51611.9082-.9082l1.105.23584c.32471-.78467.251-.60572.57569-1.39063l-.94776-.61426ZM7.10706,8.68213H7.10645a1.66669,1.66669,0,1,1,.00061,0Z"/><path class="iconMain" d="M12.55957,7.57275l-.56738-.36792V6.82617l.56738-.36792a.8328.8328,0,0,0,.31689-1.01782l-.2749-.66406-.30078-.72656a.83253.83253,0,0,0-.94434-.49634l-.66162.14136-.26758-.26733.1416-.66162a.83345.83345,0,0,0-.49609-.94434l-.77588-.321-.61475-.25488a.83278.83278,0,0,0-1.01807.31689l-.36816.56763H6.91748L6.54932,1.5625a.83278.83278,0,0,0-1.01807-.31689l-.69531.28809-.69531.28784a.83316.83316,0,0,0-.49609.94409l.14111.66162-.02637.02686-.24121.24072-.66113-.14136a.83265.83265,0,0,0-.94434.49609l-.23.55591-.34619.83447A.83375.83375,0,0,0,1.65332,6.4585l.56787.36792v.37817l-.56787.36792a.83375.83375,0,0,0-.31689,1.01855l.24072.58081.33545.80981a.83216.83216,0,0,0,.94385.49585l.66162-.14136.26758.26758-.14111.66162a.833.833,0,0,0,.49609.94385l.68945.28589.70117.29028a.832.832,0,0,0,1.01807-.31665l.36816-.56787H7.2959l.36816.56787a.832.832,0,0,0,1.01807.31665l.34717-.1438,1.03613-.4292a.84193.84193,0,0,0,.50342-.94727l-.1416-.66138.24121-.241.02637-.02661.66211.14136a.8319.8319,0,0,0,.94385-.49634l.27734-.66992.29834-.7207A.83279.83279,0,0,0,12.55957,7.57275ZM11.53076,9.6626l-1.105-.23584c-.39209.39209-.51562.51587-.9082.9082l.23633,1.10449c-.78516.3252-.606.251-1.39062.57617l-.61426-.948H6.46436l-.61426.948c-.78467-.3252-.606-.251-1.39062-.57617L4.69531,10.335c-.39209-.39233-.51562-.51611-.9082-.9082l-1.10449.2358c-.3252-.78467-.251-.60571-.57617-1.39062l.94824-.61426V6.37329L2.10645,5.759c.3252-.78467.251-.60571.57617-1.39062l1.10449.23608c.39258-.39233.51611-.51611.9082-.9082L4.45947,2.59155c.78467-.325.606-.251,1.39063-.57593l.61426.94775H7.749l.61426-.94775c.78467.325.60547.251,1.39063.57593L9.51758,3.69629c.39258.39209.51611.51587.9082.9082l1.105-.23608c.32471.78491.251.606.57568,1.39063l-.94775.61426V7.65771l.94775.61426C11.78174,9.05688,11.85547,8.87793,11.53076,9.6626ZM7.10644,4.5156a2.49988,2.49988,0,1,0,2.50049,2.5,2.49987,2.49987,0,0,0-2.50049-2.5Zm0,4.1665a1.5881,1.5881,0,1,1,.00059,0H7.10645Z"/><path class="iconMain" d="M12.55957,7.57275l-.56738-.36792V6.82617l.56738-.36792a.8328.8328,0,0,0,.31689-1.01782l-.2749-.66406-.30078-.72656a.83253.83253,0,0,0-.94434-.49634l-.66162.14136-.26758-.26733.1416-.66162a.83345.83345,0,0,0-.49609-.94434l-.77588-.321-.61475-.25488a.83278.83278,0,0,0-1.01807.31689l-.36816.56763H6.91748L6.54932,1.5625a.83278.83278,0,0,0-1.01807-.31689l-.69531.28809-.69531.28784a.83316.83316,0,0,0-.49609.94409l.14111.66162-.02637.02686-.24121.24072-.66113-.14136a.83265.83265,0,0,0-.94434.49609l-.23.55591-.34619.83447A.83375.83375,0,0,0,1.65332,6.4585l.56787.36792v.37817l-.56787.36792a.83375.83375,0,0,0-.31689,1.01855l.24072.58081.33545.80981a.83216.83216,0,0,0,.94385.49585l.66162-.14136.26758.26758-.14111.66162a.833.833,0,0,0,.49609.94385l.68945.28589.70117.29028a.832.832,0,0,0,1.01807-.31665l.36816-.56787H7.2959l.36816.56787a.832.832,0,0,0,1.01807.31665l.34717-.1438,1.03613-.4292a.84193.84193,0,0,0,.50342-.94727l-.1416-.66138.24121-.241.02637-.02661.66211.14136a.8319.8319,0,0,0,.94385-.49634l.27734-.66992.29834-.7207A.83279.83279,0,0,0,12.55957,7.57275ZM11.53076,9.6626l-1.105-.23584c-.39209.39209-.51562.51587-.9082.9082l.23633,1.10449c-.78516.3252-.606.251-1.39062.57617l-.61426-.948H6.46436l-.61426.948c-.78467-.3252-.606-.251-1.39062-.57617L4.69531,10.335c-.39209-.39233-.51562-.51611-.9082-.9082l-1.10449.2358c-.3252-.78467-.251-.60571-.57617-1.39062l.94824-.61426V6.37329L2.10645,5.759c.3252-.78467.251-.60571.57617-1.39062l1.10449.23608c.39258-.39233.51611-.51611.9082-.9082L4.45947,2.59155c.78467-.325.606-.251,1.39063-.57593l.61426.94775H7.749l.61426-.94775c.78467.325.60547.251,1.39063.57593L9.51758,3.69629c.39258.39209.51611.51587.9082.9082l1.105-.23608c.32471.78491.251.606.57568,1.39063l-.94775.61426V7.65771l.94775.61426C11.78174,9.05688,11.85547,8.87793,11.53076,9.6626ZM7.10644,4.5156a2.49988,2.49988,0,1,0,2.50049,2.5,2.49987,2.49987,0,0,0-2.50049-2.5Zm0,4.1665a1.5881,1.5881,0,1,1,.00059,0H7.10645Z"/></svg>